<mxfile host="Electron" modified="2023-10-19T10:42:48.800Z" agent="Mozilla/5.0 (Windows NT 10.0; Win64; x64) AppleWebKit/537.36 (KHTML, like Gecko) draw.io/22.0.2 Chrome/114.0.5735.289 Electron/25.8.4 Safari/537.36" etag="Q5ka1_ik5I7z4bgxCp20" version="22.0.2" type="device">
  <diagram name="page-1" id="nTteX_-L-bd6lsjCAH_5">
    <mxGraphModel dx="1036" dy="606" grid="1" gridSize="10" guides="1" tooltips="1" connect="1" arrows="1" fold="1" page="1" pageScale="1" pageWidth="827" pageHeight="1169" math="0" shadow="0">
      <root>
        <mxCell id="0" />
        <mxCell id="1" parent="0" />
        <mxCell id="0EIq4OgII-BHYrVc7AHv-1" value="classic" style="rounded=0;whiteSpace=wrap;html=1;" parent="1" vertex="1">
          <mxGeometry x="180" y="110" width="80" height="35" as="geometry" />
        </mxCell>
        <mxCell id="fbfoZVHTcV8SbdVOBE8y-3" style="edgeStyle=orthogonalEdgeStyle;rounded=0;orthogonalLoop=1;jettySize=auto;html=1;exitX=0.25;exitY=1;exitDx=0;exitDy=0;entryX=0;entryY=0.5;entryDx=0;entryDy=0;curved=1;" edge="1" parent="1" source="z7vC7oLisWLh9jTTofFt-3" target="rceFUdOcMg6-CjwaC8J5-1">
          <mxGeometry relative="1" as="geometry" />
        </mxCell>
        <mxCell id="fbfoZVHTcV8SbdVOBE8y-16" style="edgeStyle=orthogonalEdgeStyle;rounded=0;orthogonalLoop=1;jettySize=auto;html=1;entryX=0;entryY=0.5;entryDx=0;entryDy=0;curved=1;exitX=0.25;exitY=1;exitDx=0;exitDy=0;" edge="1" parent="1" source="z7vC7oLisWLh9jTTofFt-3" target="fbfoZVHTcV8SbdVOBE8y-6">
          <mxGeometry relative="1" as="geometry" />
        </mxCell>
        <mxCell id="fbfoZVHTcV8SbdVOBE8y-17" style="edgeStyle=orthogonalEdgeStyle;rounded=0;orthogonalLoop=1;jettySize=auto;html=1;exitX=0.25;exitY=1;exitDx=0;exitDy=0;entryX=0;entryY=0.5;entryDx=0;entryDy=0;curved=1;" edge="1" parent="1" source="z7vC7oLisWLh9jTTofFt-3" target="fbfoZVHTcV8SbdVOBE8y-9">
          <mxGeometry relative="1" as="geometry" />
        </mxCell>
        <mxCell id="fbfoZVHTcV8SbdVOBE8y-27" style="edgeStyle=orthogonalEdgeStyle;rounded=0;orthogonalLoop=1;jettySize=auto;html=1;exitX=0.25;exitY=1;exitDx=0;exitDy=0;entryX=0;entryY=0.5;entryDx=0;entryDy=0;curved=1;" edge="1" parent="1" source="z7vC7oLisWLh9jTTofFt-3" target="fbfoZVHTcV8SbdVOBE8y-25">
          <mxGeometry relative="1" as="geometry" />
        </mxCell>
        <mxCell id="z7vC7oLisWLh9jTTofFt-3" value="ReactPlugin" style="rounded=0;whiteSpace=wrap;html=1;" parent="1" vertex="1">
          <mxGeometry x="20" y="25" width="120" height="60" as="geometry" />
        </mxCell>
        <mxCell id="fbfoZVHTcV8SbdVOBE8y-2" style="edgeStyle=orthogonalEdgeStyle;rounded=0;orthogonalLoop=1;jettySize=auto;html=1;exitX=1;exitY=0.5;exitDx=0;exitDy=0;entryX=0;entryY=0.5;entryDx=0;entryDy=0;" edge="1" parent="1" source="rceFUdOcMg6-CjwaC8J5-1" target="0EIq4OgII-BHYrVc7AHv-1">
          <mxGeometry relative="1" as="geometry" />
        </mxCell>
        <mxCell id="rceFUdOcMg6-CjwaC8J5-1" value="addPreset" style="rounded=1;whiteSpace=wrap;html=1;arcSize=50;" parent="1" vertex="1">
          <mxGeometry x="80" y="112.5" width="70" height="30" as="geometry" />
        </mxCell>
        <mxCell id="fbfoZVHTcV8SbdVOBE8y-4" value="context menu" style="rounded=0;whiteSpace=wrap;html=1;" vertex="1" parent="1">
          <mxGeometry x="180" y="168.5" width="80" height="35" as="geometry" />
        </mxCell>
        <mxCell id="fbfoZVHTcV8SbdVOBE8y-5" style="edgeStyle=orthogonalEdgeStyle;rounded=0;orthogonalLoop=1;jettySize=auto;html=1;exitX=1;exitY=0.5;exitDx=0;exitDy=0;entryX=0;entryY=0.5;entryDx=0;entryDy=0;" edge="1" parent="1" source="fbfoZVHTcV8SbdVOBE8y-6" target="fbfoZVHTcV8SbdVOBE8y-4">
          <mxGeometry relative="1" as="geometry" />
        </mxCell>
        <mxCell id="fbfoZVHTcV8SbdVOBE8y-6" value="addPreset" style="rounded=1;whiteSpace=wrap;html=1;arcSize=50;" vertex="1" parent="1">
          <mxGeometry x="80" y="171" width="70" height="30" as="geometry" />
        </mxCell>
        <mxCell id="fbfoZVHTcV8SbdVOBE8y-7" value="minimap" style="rounded=0;whiteSpace=wrap;html=1;" vertex="1" parent="1">
          <mxGeometry x="180" y="226" width="80" height="35" as="geometry" />
        </mxCell>
        <mxCell id="fbfoZVHTcV8SbdVOBE8y-8" style="edgeStyle=orthogonalEdgeStyle;rounded=0;orthogonalLoop=1;jettySize=auto;html=1;exitX=1;exitY=0.5;exitDx=0;exitDy=0;entryX=0;entryY=0.5;entryDx=0;entryDy=0;" edge="1" parent="1" source="fbfoZVHTcV8SbdVOBE8y-9" target="fbfoZVHTcV8SbdVOBE8y-7">
          <mxGeometry relative="1" as="geometry" />
        </mxCell>
        <mxCell id="fbfoZVHTcV8SbdVOBE8y-9" value="addPreset" style="rounded=1;whiteSpace=wrap;html=1;arcSize=50;" vertex="1" parent="1">
          <mxGeometry x="80" y="228.5" width="70" height="30" as="geometry" />
        </mxCell>
        <mxCell id="fbfoZVHTcV8SbdVOBE8y-20" value="renders nodes, connections, etc." style="shape=note;whiteSpace=wrap;html=1;backgroundOutline=1;darkOpacity=0.05;size=10;fillColor=#fff2cc;strokeColor=#d6b656;" vertex="1" parent="1">
          <mxGeometry x="220" y="85" width="110" height="32" as="geometry" />
        </mxCell>
        <mxCell id="fbfoZVHTcV8SbdVOBE8y-21" value="renders context menu" style="shape=note;whiteSpace=wrap;html=1;backgroundOutline=1;darkOpacity=0.05;size=10;fillColor=#fff2cc;strokeColor=#d6b656;" vertex="1" parent="1">
          <mxGeometry x="210" y="155" width="140" height="22" as="geometry" />
        </mxCell>
        <mxCell id="fbfoZVHTcV8SbdVOBE8y-22" value="renders minimap" style="shape=note;whiteSpace=wrap;html=1;backgroundOutline=1;darkOpacity=0.05;size=10;fillColor=#fff2cc;strokeColor=#d6b656;" vertex="1" parent="1">
          <mxGeometry x="215" y="214" width="120" height="20.5" as="geometry" />
        </mxCell>
        <mxCell id="fbfoZVHTcV8SbdVOBE8y-23" value="reroute" style="rounded=0;whiteSpace=wrap;html=1;" vertex="1" parent="1">
          <mxGeometry x="180" y="285" width="80" height="35" as="geometry" />
        </mxCell>
        <mxCell id="fbfoZVHTcV8SbdVOBE8y-24" style="edgeStyle=orthogonalEdgeStyle;rounded=0;orthogonalLoop=1;jettySize=auto;html=1;exitX=1;exitY=0.5;exitDx=0;exitDy=0;entryX=0;entryY=0.5;entryDx=0;entryDy=0;" edge="1" parent="1" source="fbfoZVHTcV8SbdVOBE8y-25" target="fbfoZVHTcV8SbdVOBE8y-23">
          <mxGeometry relative="1" as="geometry" />
        </mxCell>
        <mxCell id="fbfoZVHTcV8SbdVOBE8y-25" value="addPreset" style="rounded=1;whiteSpace=wrap;html=1;arcSize=50;" vertex="1" parent="1">
          <mxGeometry x="80" y="287.5" width="70" height="30" as="geometry" />
        </mxCell>
        <mxCell id="fbfoZVHTcV8SbdVOBE8y-26" value="renders pins" style="shape=note;whiteSpace=wrap;html=1;backgroundOutline=1;darkOpacity=0.05;size=10;fillColor=#fff2cc;strokeColor=#d6b656;" vertex="1" parent="1">
          <mxGeometry x="215" y="273" width="95" height="20.5" as="geometry" />
        </mxCell>
      </root>
    </mxGraphModel>
  </diagram>
</mxfile>
